<svg width="1920" height="1080" viewBox="0 0 1920 1080" xmlns="http://www.w3.org/2000/svg"><rect width="1920" height="1080" fill="#3d1053"/><path d="M2468,44.99999999999987C2488.323483516301,130.42531347037595,2395.9959350318995,168.4138448595487,2338.868255373041,245.96462336870798C2281.7405757141823,323.51540187786725,2217.4176182834954,475.7054539556485,2125.2339220468475,510.3046710549556C2033.0502258101994,544.9038881542626,1865.3123578473337,495.2579439701759,1785.7660779531527,453.55992596455036C1706.2197980589717,411.8619079589248,1712.9172556739538,332.54321734862737,1647.9562426817618,260.1165630212023C1582.9952296895697,187.68990869377723,1407.5879032009614,104.11730341245851,1396,19.000000000000064C1384.4120967990386,-66.11730341245837,1512.849346457858,-205.3293485378682,1578.4288234759933,-250.58725745354832C1644.0083004941287,-295.8451663692284,1705.026563291735,-253.81313502783166,1789.4768621088122,-252.54745349408051C1873.9271609258892,-251.28177196032937,2013.8888676840525,-240.65320092446336,2085.130616378456,-242.99316825104137C2156.37236507286,-245.33313557761937,2153.1157903383105,-314.586118828722,2216.9273542752344,-266.5872574535485C2280.7389182121583,-218.58839607837496,2447.676516483699,-40.425313470376196,2468,44.99999999999987C2488.323483516301,130.42531347037595,2395.9959350318995,168.4138448595487,2338.868255373041,245.96462336870798" fill="#a68ea6"/></svg>